<svg id="Layer_1" data-name="Layer 1" xmlns="http://www.w3.org/2000/svg" viewBox="0 0 897.68 897.76"><title>deno-farmer-logo</title><path d="M897.88,451.16s-3.66,242.15-266.2,400a375.21,375.21,0,0,1-44.43,22.48c-11.29,4.65-44.11,17.42-89.59,22.86A348.58,348.58,0,0,1,450,899C270.4,894.34,2.2,734.07,2.2,451.16,2.2,203.82,202.7,3.32,450,3.32S897.88,203.82,897.88,451.16Z" transform="translate(-1.2 -2.32)" style="fill:#69d669;stroke:#000;stroke-miterlimit:10;stroke-width:2px"/><path d="M636.16,857.34c0-.06.83-10.53.84-10.59s.27-3.53.28-3.54,5.55-70.21,5.62-71.07V640.45l8.42-123.93-17-127.93-58.84-67.27-85.92-17L390.3,314.34l-88.95,48.84-86,64.64q-12.39,33-24.79,66.08l42.29,40.22a246.7,246.7,0,0,0,95.6-9.45,243.73,243.73,0,0,0,73-36.52l20.1-10L477.8,449.9l-79.07,38.25L402,651.92l-8.75,69-2.91,67.52v53.15L383,881.76l-.8,8.62,30,4.31L442.79,899h33.54l36.46-8.62,33.54-5.75c5.86.68,28.11,2.55,45.94-12.37a53.15,53.15,0,0,0,11.53-13.58" transform="translate(-1.2 -2.32)" style="fill:#fff;stroke:#000;stroke-miterlimit:10;stroke-width:2px"/><circle cx="289.56" cy="407.52" r="9.36" style="stroke:#000;stroke-miterlimit:10;stroke-width:2px"/><circle cx="363.72" cy="406.64" r="9.36" style="stroke:#000;stroke-miterlimit:10;stroke-width:2px"/><path d="M719,301.4c.16,6.68-9.49,12.61-28.8,24.48-9.82,6-24.07,13.37-60.48,23-22.05,5.85-42.18,11.2-70.56,14.4-27,3-46.66,2.49-83.52,1.44-12.44-.35-27-1.2-56.16-2.88-35.84-2.07-53.75-3.11-64.8-4.32-42.93-4.71-64.84-7.36-86.4-21.6-12-7.94-34.93-23.06-33.12-37.44,4.31-34.3,147-46.17,244.08-44.64C594.47,255.7,718.43,277.56,719,301.4Z" transform="translate(-1.2 -2.32)" style="fill:#fbb03b"/><path d="M626.84,225.68c.1,5.33-6.1,10.06-18.52,19.54C602,250,592.85,255.9,569.44,263.61c-14.17,4.67-27.11,8.94-45.35,11.5-17.35,2.43-30,2-53.7,1.15-8-.29-17.36-1-36.1-2.3-23-1.66-34.55-2.48-41.66-3.45-27.59-3.76-41.68-5.88-55.54-17.24-7.73-6.34-22.45-18.42-21.29-29.89,2.77-27.38,94.49-36.86,156.91-35.64C546.79,189.2,626.47,206.64,626.84,225.68Z" transform="translate(-1.2 -2.32)" style="fill:#fbb03b"/><polygon points="313.68 221.28 318.4 299.14 340.52 313.48 382.28 325 444.2 332.2 504.68 333.64 563.72 326.44 612.68 310.6 625.64 304.84 626.08 223.19 614.12 240.04 593.96 242.92 562.28 245.8 524.84 247.24 488.84 248.68 449.96 248.68 401 247.24 353.48 237.16 329 232.84 313.68 221.28" style="fill:#ff7e2e"/><polygon points="316.04 273.94 318.4 301.13 340.52 314.64 382.28 325.5 444.2 332.28 504.68 333.64 563.72 326.86 612.68 311.93 625.64 306.5 624.2 287.5 588.2 301.07 546.44 307.86 504.68 309.22 465.8 306.5 424.04 305.14 383.72 297 353.48 290.22 326.12 279.36 316.04 273.94" style="fill:#442a19"/><path d="M398.84,572.08l-2.72-83.48,2.72,155.93q-4.08,44.09-8.15,88.19-1.37,44.12-2.72,88.2l-2.72,63-5.43,7.88,5.1-21.6,2.88-34.56V789.56l2.89-56.84L395,681.56l2.88-51.84V552l-1.76-63.36,40.64-17.28" transform="translate(-1.2 -2.32)" style="fill:none;stroke:#000;stroke-miterlimit:10;stroke-width:2px"/><path d="M177,483c-.25.16-.69-.68-2.64-1.68a13.73,13.73,0,0,0-3.43-1.23,11.71,11.71,0,0,0-1.6-.26,13.47,13.47,0,0,0-3.17.07c-1.43.23-5.56.81-7,3.87-1.49,3.24.77,8.52.77,8.52.56,2.73,1.75,6.2,4.65,7.75,1.94,1,3.2.45,7.75.77,6.55.47,6.61,1.88,10.06,1.55,2.5-.24,3-1,10.85-5.42,6.2-3.46,5.79-2.91,10.07-5.42,4-2.35,4.15-2.71,10.84-7,5.56-3.54,8.41-5.34,11.62-7,5.21-2.64,7.81-4,11.61-4.65,2.71-.49,9.35-1.68,15.49,1.55s6.68,8,10.07,7.75,3.35-5.42,8.52-8.52c4.79-2.88,10.42-1.77,15.49-.78,2.64.52,7,2.42,15.49,6.2,9,4,13.49,6,14.72,7,6,4.87,5.37,8.25,11.61,11.62a29.39,29.39,0,0,0,10.07,3.09c4,.46,4.3-.37,9.3,0,6.24.46,7.39,1.88,10.06.78,3.39-1.4,4.95-5.08,5.43-6.2a25.38,25.38,0,0,0,1.54-8.52L359,478.38c-2.82,2-9,6.25-10.84,4.65s.7-10.3,6.19-12.39c3.69-1.4,7.34.63,13.17,3.87,3.89,2.16,7.06,3.93,9.29,7.75,2.08,3.55,2.21,6.92,2.33,10.06a39.75,39.75,0,0,1-14.72,31c-4.77,3.59-9.12,4.72-17.81,7a81.1,81.1,0,0,1-20.91,3.1c-1.87,0-4.81,0-22.46-3.1-14.12-2.45-21.24-3.71-24-5.42-8.8-5.42-10.2-12.59-16.27-12.39-2.94.1-3.61,1.82-10.07,6.2A91,91,0,0,1,235.12,528c-4.82,1.78-9.66,2.47-19.36,3.87-9.38,1.36-14.07,2-20.14,1.55a76.84,76.84,0,0,1-15.49-3.1c-6.77-1.86-10.3-2.82-14.71-5.42a43.47,43.47,0,0,1-11.62-10.07c-3.59-4.42-6.94-8.54-7.75-14.71-1-7.47,2.38-13.29,5.43-18.59,2.23-3.88,4.27-7.31,8.51-9.29,1.36-.64,5.66-2.65,10.07-.78C176.41,474.1,177.77,482.58,177,483Z" transform="translate(-1.2 -2.32)"/><path d="M294.38,93.71,272,158.22c-.64,1.82,2.26,2.61,2.89.79L297.27,94.5c.64-1.82-2.26-2.61-2.89-.79Z" transform="translate(-1.2 -2.32)"/><path d="M212.3,161.39A684.55,684.55,0,0,0,193.2,229c-.43,1.88,2.46,2.68,2.89.79a685.38,685.38,0,0,1,19.11-67.57c.62-1.83-2.28-2.62-2.9-.79Z" transform="translate(-1.2 -2.32)"/><path d="M105.39,288l-24,70.74c-.62,1.83,2.28,2.62,2.89.8l24-70.74c.62-1.83-2.28-2.62-2.89-.8Z" transform="translate(-1.2 -2.32)"/><path d="M91.15,471.33l-7.69,57.53c-.26,1.91,2.75,1.89,3,0l7.69-57.53c.26-1.91-2.75-1.89-3,0Z" transform="translate(-1.2 -2.32)"/><path d="M179,621.09a290.73,290.73,0,0,0-.61,56.2c.17,1.91,3.17,1.93,3,0a290.73,290.73,0,0,1,.61-56.2c.21-1.92-2.79-1.91-3,0Z" transform="translate(-1.2 -2.32)"/><path d="M265.76,662.56a121.74,121.74,0,0,0-3.94,57c.32,1.9,3.21,1.09,2.89-.8a118.42,118.42,0,0,1,3.94-55.36c.58-1.85-2.31-2.64-2.89-.8Z" transform="translate(-1.2 -2.32)"/><path d="M322.94,757.88l-1.44,41.76c-.07,1.93,2.93,1.93,3,0l1.44-41.76c.07-1.93-2.93-1.93-3,0Z" transform="translate(-1.2 -2.32)"/><path d="M740.54,618.2a251.19,251.19,0,0,1-4.27,39.92c-.35,1.89,2.54,2.7,2.9.8a257.78,257.78,0,0,0,4.37-40.72c.05-1.93-2.95-1.93-3,0Z" transform="translate(-1.2 -2.32)"/><path d="M796.7,484.28l-1.44,27.36c-.1,1.93,2.9,1.92,3,0l1.44-27.36c.1-1.93-2.9-1.92-3,0Z" transform="translate(-1.2 -2.32)"/><path d="M807,350a331.77,331.77,0,0,0-7,42c-.19,1.92,2.81,1.91,3,0a324.58,324.58,0,0,1,6.87-41.22c.44-1.88-2.45-2.68-2.89-.8Z" transform="translate(-1.2 -2.32)"/><path d="M759.36,265,749.3,305.34c-.47,1.87,2.43,2.67,2.89.8l10.06-40.33c.47-1.87-2.42-2.67-2.89-.8Z" transform="translate(-1.2 -2.32)"/><path d="M672.66,151.19l-11.45,53.29c-.41,1.88,2.48,2.69,2.89.8L675.55,152c.4-1.88-2.49-2.68-2.89-.79Z" transform="translate(-1.2 -2.32)"/><path d="M556.19,96.49l-13.14,37.38c-.64,1.82,2.26,2.61,2.89.8l13.14-37.38c.64-1.83-2.26-2.61-2.89-.8Z" transform="translate(-1.2 -2.32)"/><path d="M383.47,79.65,379,120c-.22,1.92,2.78,1.9,3,0l4.46-40.3c.21-1.92-2.79-1.91-3,0Z" transform="translate(-1.2 -2.32)"/></svg>